<?xml version="1.0" encoding="UTF-8" standalone="no"?>
<svg
   xmlns:dc="http://purl.org/dc/elements/1.1/"
   xmlns:cc="http://creativecommons.org/ns#"
   xmlns:rdf="http://www.w3.org/1999/02/22-rdf-syntax-ns#"
   xmlns:svg="http://www.w3.org/2000/svg"
   xmlns="http://www.w3.org/2000/svg"
   xmlns:sodipodi="http://sodipodi.sourceforge.net/DTD/sodipodi-0.dtd"
   xmlns:inkscape="http://www.inkscape.org/namespaces/inkscape"
   width="210mm"
   height="100mm"
   viewBox="0 0 210 100"
   version="1.1"
   id="svg5814"
   inkscape:version="1.0 (4035a4fb49, 2020-05-01)"
   sodipodi:docname="t4.svg">
  <defs
     id="defs5808">
    <rect
       x="10.790143"
       y="86.264698"
       width="48.912509"
       height="12.073457"
       id="rect7004" />
  </defs>
  <sodipodi:namedview
     id="base"
     pagecolor="#ffffff"
     bordercolor="#666666"
     borderopacity="1.0"
     inkscape:pageopacity="0.0"
     inkscape:pageshadow="2"
     inkscape:zoom="1.4"
     inkscape:cx="388.77729"
     inkscape:cy="198.87032"
     inkscape:document-units="mm"
     inkscape:current-layer="layer1"
     inkscape:document-rotation="0"
     showgrid="false"
     height="100mm"
     inkscape:window-width="1856"
     inkscape:window-height="1052"
     inkscape:window-x="64"
     inkscape:window-y="28"
     inkscape:window-maximized="1" />
  <metadata
     id="metadata5811">
    <rdf:RDF>
      <cc:Work
         rdf:about="">
        <dc:format>image/svg+xml</dc:format>
        <dc:type
           rdf:resource="http://purl.org/dc/dcmitype/StillImage" />
        <dc:title />
      </cc:Work>
    </rdf:RDF>
  </metadata>
  <g
     inkscape:label="Layer 1"
     inkscape:groupmode="layer"
     id="layer1">
    <g
       id="g7000"
       transform="matrix(3.1244604,0,0,3.1244604,-67.828458,-106.86772)"
       style="fill:#333333">
      <g
         transform="matrix(0.35277777,0,0,-0.35277777,29.995609,38.122648)"
         id="g758"
         style="fill:#333333">
        <path
           id="path760"
           style="fill:#333333;fill-opacity:1;fill-rule:evenodd;stroke:none"
           d="m 0,0 c 0,0 0,-1.553 0.75,-1.339 0.75,0.215 3.75,4.821 11.838,6 8.09,1.178 15.107,-2.946 15.107,-2.946 0,0 -3.268,-5.357 -12.964,-8.25 0,0 -5.356,-2.25 -14.517,1.446 0,0 -0.428,0 -0.375,-0.963 0.054,-0.965 0.215,-4.982 3.268,-7.821 l 0.107,-6.107 c 0,0 3.161,-2.839 3.321,-3.964 0.161,-1.125 2.143,-8.678 2.143,-8.678 0,0 -0.696,-1.607 -1.018,-0.589 -0.321,1.018 -1.982,8.464 -5.089,8.999 l -0.696,-9.481 c 0,0 -1.821,3.374 -1.5,7.767 l -2.625,-4.821 c 0,0 0.75,6.803 2.732,10.445 0,0 0.268,6.161 -0.803,7.393 -1.072,1.232 -1.875,3.857 -2.036,6.428 -0.161,2.571 0.268,6.053 0.268,6.053 0,0 0.321,3.535 2.089,0.428" />
      </g>
      <g
         transform="matrix(0.35277777,0,0,-0.35277777,32.977145,45.968152)"
         id="g762"
         style="fill:#333333">
        <path
           id="path764"
           style="fill:#333333;fill-opacity:1;fill-rule:evenodd;stroke:none"
           d="m 0,0 8.846,8.638 2.367,-2.657 -8.472,-8.639 8.597,-8.555 -2.617,-2.741 -8.763,8.638 -8.68,-8.555 -2.699,2.824 8.887,8.348 -8.638,8.721 2.658,2.575 z" />
      </g>
      <g
         transform="matrix(0.35277777,0,0,-0.35277777,30.868348,42.787384)"
         id="g766"
         style="fill:#333333">
        <path
           id="path768"
           style="fill:#333333;fill-opacity:1;fill-rule:evenodd;stroke:none"
           d="m 0,0 h -2.597 c -0.06,0.125 -0.126,0.23 -0.198,0.314 -1.072,1.232 -1.875,3.857 -2.036,6.428 -0.16,2.571 0.268,6.053 0.268,6.053 0,0 0.321,3.535 2.089,0.428 0,0 0,-1.553 0.75,-1.339 0.75,0.215 3.75,4.822 11.839,6 8.089,1.178 15.106,-2.946 15.106,-2.946 0,0 -3.268,-5.357 -12.964,-8.25 0,0 -5.356,-2.25 -14.517,1.446 0,0 -0.428,0 -0.375,-0.963 C -2.585,6.277 -2.443,2.769 0,0" />
      </g>
    </g>
    <text
       xml:space="preserve"
       id="text7002"
       style="fill:#333333;fill-opacity:1;stroke:none;font-family:sans-serif;font-style:normal;font-weight:normal;font-size:10.58333333px;line-height:1.25;letter-spacing:0px;word-spacing:0px;white-space:pre;shape-inside:url(#rect7004);" />
    <text
       xml:space="preserve"
       style="font-style:normal;font-variant:normal;font-weight:normal;font-stretch:normal;font-size:13.0149px;line-height:1.25;font-family:sans;-inkscape-font-specification:sans;letter-spacing:0px;word-spacing:0px;fill:#333333;fill-opacity:1;stroke:none;stroke-width:0.325373"
       x="12.384107"
       y="73.958549"
       id="text7010"><tspan
         sodipodi:role="line"
         id="tspan7008"
         x="12.384107"
         y="73.958549"
         style="font-style:normal;font-variant:normal;font-weight:normal;font-stretch:normal;font-family:sans;-inkscape-font-specification:sans;fill:#333333;stroke-width:0.325373">有害垃圾</tspan></text>
    <text
       xml:space="preserve"
       style="font-style:normal;font-weight:normal;font-size:7.05556px;line-height:1.25;font-family:sans-serif;letter-spacing:0px;word-spacing:0px;fill:#333333;fill-opacity:1;stroke:none;stroke-width:0.264583"
       x="6.2619519"
       y="83.465401"
       id="text7014"><tspan
         sodipodi:role="line"
         id="tspan7012"
         x="6.2619519"
         y="83.465401"
         style="font-style:normal;font-variant:normal;font-weight:normal;font-stretch:normal;font-size:7.05556px;font-family:sans;-inkscape-font-specification:sans;fill:#333333;stroke-width:0.264583">HAZARDOUS WASTE</tspan></text>
    <g
       id="g7557"
       transform="translate(9.5605554,2.3934071)"
       style="fill:#333333">
      <g
         transform="matrix(0.7421732,0,0,-0.7421732,150.8061,67.924313)"
         id="g786"
         style="fill:#333333">
        <path
           id="path788"
           style="fill:#333333;fill-opacity:1;fill-rule:nonzero;stroke:none"
           d="m 0,0 c 0.283,0.196 0.614,0.322 0.785,0.563 0.645,0.905 1.26,1.833 1.847,2.775 1.831,2.944 3.641,5.899 5.464,8.848 0.865,1.4 1.807,2.756 2.594,4.197 1.124,2.058 1.024,1.793 -0.623,2.644 -3.019,1.559 -6.045,3.107 -9.084,4.628 -0.999,0.499 -1.302,0.363 -1.888,-0.582 -1.289,-2.077 -2.544,-4.176 -3.876,-6.225 -1.89,-2.906 -3.84,-5.773 -5.756,-8.662 -0.672,-1.013 -0.693,-1.139 0.307,-1.822 2.643,-1.804 5.313,-3.568 8,-5.305 C -1.569,0.633 -0.799,0.373 0,0 m -11.756,7.172 c 0.394,0.694 0.747,1.392 1.168,2.048 2.739,4.262 5.492,8.515 8.24,12.771 0.373,0.578 0.736,1.164 1.118,1.737 0.434,0.65 1.243,0.973 1.978,0.697 C 1.555,24.12 2.337,23.74 3.105,23.344 5.652,22.03 8.19,20.7 10.726,19.366 12.122,18.632 12.336,18.11 11.592,16.703 10.846,15.291 9.984,13.938 9.141,12.579 6.938,9.029 4.72,5.487 2.5,1.946 2.134,1.363 1.748,0.788 1.331,0.241 0.636,-0.67 -0.198,-0.892 -1.177,-0.34 c -3.444,1.944 -6.917,3.852 -9.937,6.447 -0.259,0.223 -0.376,0.611 -0.642,1.065" />
      </g>
      <g
         transform="matrix(0.7421732,0,0,-0.7421732,158.71713,64.105388)"
         id="g790"
         style="fill:#333333">
        <path
           id="path792"
           style="fill:#333333;fill-opacity:1;fill-rule:nonzero;stroke:none"
           d="M 0,0 C 0.141,-0.073 0.406,-0.177 0.636,-0.334 1.073,-0.633 1.506,-0.94 1.91,-1.281 2.509,-1.784 2.633,-2.408 2.293,-2.984 2.014,-3.457 1.159,-3.784 0.6,-3.632 -0.361,-3.37 -1.292,-2.056 -1.233,-1.045 -1.199,-0.471 -0.73,-0.023 0,0" />
      </g>
      <g
         transform="matrix(0.7421732,0,0,-0.7421732,161.11191,65.021377)"
         id="g794"
         style="fill:#333333">
        <path
           id="path796"
           style="fill:#333333;fill-opacity:1;fill-rule:nonzero;stroke:none"
           d="M 0,0 C -1.172,0.174 -1.971,0.605 -2.593,1.284 -3.187,1.932 -2.762,2.955 -1.884,3.016 -0.694,3.098 0.296,2.608 1.003,1.669 1.163,1.458 1.146,0.913 0.981,0.703 0.71,0.361 0.25,0.168 0,0" />
      </g>
      <g
         transform="matrix(0.7421732,0,0,-0.7421732,159.59298,60.949352)"
         id="g798"
         style="fill:#333333">
        <path
           id="path800"
           style="fill:#333333;fill-opacity:1;fill-rule:nonzero;stroke:none"
           d="m 0,0 c -0.066,-0.592 -0.239,-1.337 -0.898,-1.694 -0.433,-0.236 -1.157,-0.384 -1.519,-0.174 -0.358,0.208 -0.576,0.911 -0.588,1.405 -0.022,0.835 0.799,1.685 1.613,1.905 C -0.609,1.653 0.018,1.066 0,0" />
      </g>
      <g
         transform="matrix(0.7421732,0,0,-0.7421732,156.19129,54.4989)"
         id="g802"
         style="fill:#333333">
        <path
           id="path804"
           style="fill:#333333;fill-opacity:1;fill-rule:nonzero;stroke:none"
           d="m 0,0 c -0.44,0.247 -0.849,0.464 -1.246,0.703 -0.431,0.258 -0.719,0.15 -0.999,-0.258 -0.32,-0.464 -0.038,-0.714 0.28,-0.921 0.364,-0.236 0.773,-0.401 1.151,-0.592 C -0.53,-0.696 -0.292,-0.384 0,0 M -1.967,1.222 C -1.679,1.159 -1.558,1.16 -1.464,1.109 -0.353,0.508 0.785,-0.054 1.842,-0.74 2.113,-0.915 2.305,-1.534 2.219,-1.868 2.087,-2.383 1.495,-2.632 1.021,-2.402 c -1.153,0.559 -2.28,1.186 -3.349,1.89 -0.238,0.156 -0.305,0.758 -0.243,1.119 0.045,0.258 0.436,0.455 0.604,0.615" />
      </g>
      <g
         transform="matrix(0.7421732,0,0,-0.7421732,152.87758,59.29989)"
         id="g806"
         style="fill:#333333">
        <path
           id="path808"
           style="fill:#333333;fill-opacity:1;fill-rule:nonzero;stroke:none"
           d="M 0,0 C 0.3,0.395 0.552,0.726 0.817,1.076 0.359,1.347 -0.041,1.577 -0.434,1.819 -0.879,2.092 -1.143,1.903 -1.417,1.524 -1.728,1.095 -1.469,0.852 -1.181,0.655 -0.807,0.399 -0.388,0.211 0,0 m 2.254,-1.481 c -0.403,0.126 -0.652,0.162 -0.856,0.276 -0.907,0.511 -1.812,1.028 -2.694,1.579 -0.417,0.26 -0.662,0.648 -0.514,1.188 0.168,0.61 0.664,0.909 1.217,0.618 C 0.503,1.602 1.594,1.004 2.624,0.319 2.897,0.138 3.11,-0.425 3.042,-0.747 2.978,-1.049 2.505,-1.264 2.254,-1.481" />
      </g>
      <g
         transform="matrix(0.7421732,0,0,-0.7421732,145.25804,62.078085)"
         id="g810"
         style="fill:#333333">
        <path
           id="path812"
           style="fill:#333333;fill-opacity:1;fill-rule:nonzero;stroke:none"
           d="m 0,0 c -0.429,0.253 -0.818,0.46 -1.183,0.703 -0.448,0.296 -0.744,0.2 -1.051,-0.235 -0.334,-0.473 -0.023,-0.708 0.278,-0.915 0.357,-0.246 0.764,-0.419 1.143,-0.62 C -0.531,-0.697 -0.292,-0.383 0,0 m 1.376,-2.531 c -0.35,0.107 -0.579,0.137 -0.764,0.242 -0.925,0.522 -1.854,1.041 -2.751,1.609 -0.589,0.375 -0.703,0.974 -0.353,1.498 0.372,0.557 0.849,0.451 1.34,0.181 0.854,-0.467 1.716,-0.92 2.558,-1.409 0.241,-0.14 0.5,-0.345 0.615,-0.585 0.137,-0.287 0.266,-0.714 0.147,-0.956 -0.137,-0.275 -0.55,-0.416 -0.792,-0.58" />
      </g>
      <g
         transform="matrix(0.7421732,0,0,-0.7421732,148.04498,58.018472)"
         id="g814"
         style="fill:#333333">
        <path
           id="path816"
           style="fill:#333333;fill-opacity:1;fill-rule:nonzero;stroke:none"
           d="M 0,0 C -0.434,0.255 -0.84,0.472 -1.221,0.725 -1.684,1.031 -1.972,0.873 -2.258,0.457 -2.579,-0.01 -2.26,-0.245 -1.957,-0.448 -1.6,-0.688 -1.197,-0.861 -0.828,-1.055 -0.54,-0.687 -0.297,-0.379 0,0 m 1.262,-2.447 c -0.022,0 -0.049,-0.008 -0.066,10e-4 -1.249,0.725 -2.519,1.419 -3.719,2.218 -0.16,0.106 -0.089,0.845 0.112,1.114 0.16,0.214 0.762,0.321 1.029,0.191 C -0.309,0.555 0.74,-0.031 1.729,-0.697 2.021,-0.895 2.253,-1.454 2.204,-1.803 2.163,-2.095 1.67,-2.323 1.377,-2.579 1.339,-2.535 1.3,-2.491 1.262,-2.447" />
      </g>
      <g
         transform="matrix(0.7421732,0,0,-0.7421732,150.20687,63.374644)"
         id="g818"
         style="fill:#333333">
        <path
           id="path820"
           style="fill:#333333;fill-opacity:1;fill-rule:nonzero;stroke:none"
           d="M 0,0 C 0.309,0.408 0.555,0.73 0.82,1.08 0.382,1.337 -0.024,1.555 -0.408,1.806 -0.882,2.118 -1.16,1.916 -1.441,1.513 -1.748,1.074 -1.444,0.846 -1.166,0.652 -0.808,0.404 -0.404,0.221 0,0 M 1.895,-1.36 C 1.853,-1.348 1.645,-1.328 1.479,-1.234 0.534,-0.7 -0.416,-0.173 -1.333,0.405 -1.898,0.762 -2.007,1.329 -1.709,1.851 -1.428,2.34 -1.013,2.428 -0.331,2.067 0.608,1.569 1.565,1.088 2.433,0.484 2.769,0.25 3.052,-0.305 3.05,-0.713 3.048,-1.167 2.556,-1.4 1.895,-1.36" />
      </g>
      <g
         transform="matrix(0.7421732,0,0,-0.7421732,150.62447,53.951065)"
         id="g822"
         style="fill:#333333">
        <path
           id="path824"
           style="fill:#333333;fill-opacity:1;fill-rule:nonzero;stroke:none"
           d="M 0,0 C -0.434,0.254 -0.826,0.46 -1.193,0.704 -1.639,1 -1.939,0.919 -2.247,0.475 -2.573,0.004 -2.274,-0.234 -1.97,-0.442 -1.611,-0.687 -1.203,-0.861 -0.832,-1.057 -0.538,-0.684 -0.293,-0.372 0,0 m 1.252,-2.489 c -0.241,0.073 -0.472,0.1 -0.658,0.205 -0.928,0.525 -1.86,1.046 -2.761,1.617 -0.566,0.359 -0.679,0.928 -0.365,1.45 0.346,0.574 0.826,0.52 1.326,0.238 C -0.239,0.476 0.752,-0.034 1.676,-0.647 2.442,-1.155 2.481,-1.872 1.857,-2.276 1.681,-2.389 1.452,-2.421 1.252,-2.489" />
      </g>
      <g
         transform="matrix(0.7421732,0,0,-0.7421732,153.21089,52.580753)"
         id="g826"
         style="fill:#333333">
        <path
           id="path828"
           style="fill:#333333;fill-opacity:1;fill-rule:nonzero;stroke:none"
           d="m 0,0 c 0.389,-0.357 0.886,-0.688 0.532,-1.324 -0.269,-0.483 -0.915,-0.629 -1.542,-0.309 -0.948,0.485 -1.881,1.003 -2.792,1.553 -0.59,0.357 -0.718,0.905 -0.431,1.427 0.278,0.505 0.705,0.628 1.372,0.278 0.98,-0.516 1.926,-1.094 2.887,-1.646 -0.317,0.096 -0.649,0.304 -0.946,0.261 -0.336,-0.047 -0.701,-0.26 -0.942,-0.508 -0.324,-0.334 0.004,-0.539 0.287,-0.701 0.308,-0.175 0.6,-0.39 0.926,-0.519 0.572,-0.226 1.043,0.154 0.949,0.765 C 0.261,-0.473 0.103,-0.241 0,0" />
      </g>
      <g
         transform="matrix(0.7421732,0,0,-0.7421732,150.66256,56.630291)"
         id="g830"
         style="fill:#333333">
        <path
           id="path832"
           style="fill:#333333;fill-opacity:1;fill-rule:nonzero;stroke:none"
           d="m 0,0 c 0.337,-0.334 0.716,-0.679 0.366,-1.194 -0.355,-0.523 -0.915,-0.6 -1.424,-0.336 -1.004,0.521 -1.985,1.094 -2.937,1.706 -0.561,0.36 -0.641,0.95 -0.302,1.455 0.352,0.524 0.825,0.479 1.288,0.205 0.952,-0.563 1.887,-1.158 2.828,-1.74 -0.289,0.108 -0.586,0.319 -0.864,0.296 -0.319,-0.026 -0.656,-0.215 -0.914,-0.422 -0.104,-0.082 -0.107,-0.507 -0.005,-0.591 0.353,-0.291 0.753,-0.55 1.173,-0.73 0.53,-0.227 0.977,0.132 0.939,0.712 C 0.134,-0.423 0.051,-0.213 0,0" />
      </g>
      <g
         transform="matrix(0.7421732,0,0,-0.7421732,153.23152,60.960374)"
         id="g834"
         style="fill:#333333">
        <path
           id="path836"
           style="fill:#333333;fill-opacity:1;fill-rule:nonzero;stroke:none"
           d="m 0,0 c -0.219,0.084 -0.466,0.277 -0.65,0.227 -0.338,-0.09 -0.694,-0.265 -0.942,-0.507 -0.348,-0.34 0.011,-0.532 0.272,-0.703 0.222,-0.146 0.431,-0.346 0.676,-0.417 0.292,-0.081 0.704,-0.174 0.902,-0.033 0.198,0.142 0.206,0.561 0.281,0.863 0.016,0.066 -0.036,0.15 -0.102,0.387 0.384,-0.44 0.639,-0.747 0.356,-1.176 -0.317,-0.478 -0.848,-0.625 -1.291,-0.4 -1.101,0.561 -2.172,1.196 -3.205,1.876 -0.499,0.329 -0.469,0.889 -0.151,1.369 0.3,0.451 0.751,0.454 1.18,0.219 C -1.75,1.198 -0.844,0.661 0.069,0.136 0.046,0.091 0.023,0.046 0,0" />
      </g>
      <g
         transform="matrix(0.7421732,0,0,-0.7421732,150.76067,65.15803)"
         id="g838"
         style="fill:#333333">
        <path
           id="path840"
           style="fill:#333333;fill-opacity:1;fill-rule:nonzero;stroke:none"
           d="m 0,0 c 0.346,-0.329 0.71,-0.675 0.369,-1.192 -0.331,-0.504 -0.885,-0.608 -1.36,-0.365 -1.047,0.534 -2.065,1.132 -3.049,1.773 -0.53,0.347 -0.582,0.926 -0.256,1.414 0.351,0.522 0.819,0.48 1.285,0.202 0.951,-0.566 1.888,-1.156 2.831,-1.736 -0.23,0.082 -0.477,0.135 -0.688,0.251 -0.623,0.346 -0.917,-0.106 -1.179,-0.505 -0.302,-0.46 0.211,-0.541 0.437,-0.724 0.222,-0.179 0.477,-0.332 0.74,-0.446 0.606,-0.258 1.09,0.102 1.02,0.751 C 0.129,-0.382 0.052,-0.192 0,0" />
      </g>
      <g
         transform="matrix(0.7421732,0,0,-0.7421732,156.11307,57.025501)"
         id="g842"
         style="fill:#333333">
        <path
           id="path844"
           style="fill:#333333;fill-opacity:1;fill-rule:nonzero;stroke:none"
           d="m 0,0 c 0.361,-0.324 0.704,-0.678 0.373,-1.192 -0.327,-0.506 -0.886,-0.612 -1.36,-0.366 -1.063,0.55 -2.093,1.171 -3.096,1.825 -0.5,0.327 -0.535,0.853 -0.208,1.357 0.315,0.487 0.781,0.514 1.228,0.252 0.975,-0.57 1.925,-1.185 2.885,-1.782 -0.289,0.109 -0.574,0.291 -0.867,0.303 -0.266,0.012 -0.584,-0.105 -0.797,-0.27 -0.155,-0.121 -0.281,-0.579 -0.242,-0.603 0.544,-0.341 1.106,-0.665 1.701,-0.902 0.079,-0.031 0.428,0.414 0.521,0.684 C 0.205,-0.502 0.054,-0.234 0,0" />
      </g>
      <g
         transform="matrix(0.7421732,0,0,-0.7421732,147.98034,60.693634)"
         id="g846"
         style="fill:#333333">
        <path
           id="path848"
           style="fill:#333333;fill-opacity:1;fill-rule:nonzero;stroke:none"
           d="m 0,0 c 0.356,-0.325 0.71,-0.672 0.377,-1.188 -0.326,-0.509 -0.883,-0.619 -1.358,-0.375 -1.064,0.55 -2.095,1.169 -3.099,1.822 -0.503,0.328 -0.523,0.864 -0.21,1.363 0.308,0.494 0.768,0.509 1.222,0.241 0.973,-0.574 1.929,-1.178 2.891,-1.769 -0.288,0.109 -0.592,0.331 -0.862,0.296 -0.336,-0.043 -0.668,-0.268 -0.949,-0.484 -0.085,-0.065 -0.068,-0.457 0.031,-0.535 0.361,-0.283 0.756,-0.545 1.177,-0.725 0.531,-0.227 0.977,0.135 0.934,0.717 C 0.137,-0.422 0.053,-0.212 0,0" />
      </g>
    </g>
    <g
       id="g7479"
       transform="translate(7.6405727,2.1166667)"
       style="fill:#333333">
      <g
         transform="matrix(0.7421732,0,0,-0.7421732,107.09401,25.267484)"
         id="g874"
         style="fill:#333333">
        <path
           id="path876"
           style="fill:#333333;fill-opacity:1;fill-rule:nonzero;stroke:none"
           d="M 0,0 C 0.066,-0.032 0.132,-0.064 0.198,-0.096 0.384,0.33 0.57,0.757 0.757,1.185 0.684,1.216 0.612,1.248 0.54,1.28 0.359,0.852 0.18,0.426 0,0 M -0.082,1.654 C -0.747,1.707 -1.26,1.748 -1.801,1.791 -1.644,1.312 -0.86,1.23 -0.082,1.654 M -2.219,1.381 c 0.024,0.03 0.067,0.06 0.067,0.09 0.013,0.486 0.002,0.975 0.037,1.459 0.031,0.43 -0.174,0.443 -0.483,0.354 -0.125,-1.365 -0.039,-1.79 0.379,-1.903 m 5.35,-3.901 c -0.899,-0.569 -1.825,-0.768 -2.7,-0.105 -0.87,0.658 -0.948,1.614 -0.702,2.623 -0.504,-1.057 -0.211,-2.316 0.65,-2.901 0.843,-0.575 2.072,-0.431 2.752,0.383 M 5.16,-1.296 C 4.698,-1.394 4.325,-1.385 4.064,-1.553 3.809,-1.716 3.558,-2.038 3.507,-2.326 3.439,-2.707 3.766,-2.921 4.15,-2.912 c 0.382,0.009 0.779,0.009 1.141,0.111 0.483,0.137 0.811,0.555 0.671,1.02 -0.072,0.24 -0.569,0.354 -0.802,0.485 m -7.855,0.065 c 0.564,0.619 1.216,1.335 1.907,2.095 -0.367,0.059 -0.635,0.128 -0.905,0.139 -0.366,0.015 -0.846,0.13 -1.079,-0.052 -0.619,-0.483 -1.133,-1.102 -1.716,-1.694 0.616,-0.168 1.141,-0.31 1.793,-0.488 m -2.442,-4.52 c 0.199,0.174 0.352,0.289 0.482,0.426 0.926,0.981 1.826,1.988 2.778,2.943 0.755,0.76 1.273,1.599 1.233,2.718 -0.084,-0.077 -0.186,-0.154 -0.271,-0.247 -1.24,-1.359 -2.447,-2.75 -3.729,-4.067 -0.497,-0.51 -0.639,-1.024 -0.493,-1.773 m 4.12,7.892 c 0.05,10e-4 0.101,10e-4 0.152,0.002 V 14.806 C -1.081,14.795 -1.249,14.787 -1.431,14.778 V 2.167 c 0.063,-10e-4 0.127,-10e-4 0.19,-0.003 v 9.905 c 0.075,-0.001 0.149,-0.002 0.224,-0.003 z m -4.62,-6.899 c -1.414,0.242 -2.757,0.473 -4.164,0.716 0,-0.348 -0.014,-0.773 0.009,-1.195 0.006,-0.11 0.102,-0.276 0.196,-0.311 1.275,-0.474 2.587,-0.698 3.959,-0.593 z m 2.642,7.981 C -5.28,0.99 -7.516,-1.196 -9.752,-3.381 c 0.025,-0.062 0.051,-0.123 0.077,-0.185 0.171,0.052 0.391,0.054 0.505,0.165 0.77,0.752 1.529,1.516 2.266,2.299 0.323,0.345 0.699,0.567 1.139,0.439 0.685,-0.199 1.064,0.173 1.442,0.617 0.113,0.135 0.224,0.279 0.364,0.382 0.961,0.708 1.21,1.664 0.964,2.887 M -3.134,-1.7 c -0.439,0.409 -2.646,0.796 -3.071,0.581 -0.035,-0.018 -0.069,-0.041 -0.096,-0.067 -0.876,-0.823 -1.75,-1.647 -2.624,-2.471 0.025,-0.075 0.05,-0.151 0.076,-0.227 1.041,-0.095 2.082,-0.2 3.125,-0.276 0.171,-0.012 0.404,0.06 0.517,0.179 0.697,0.737 1.368,1.499 2.073,2.281 m 1.528,8.526 c -0.136,0.445 0.311,1.029 -0.521,1.24 0.608,-0.11 0.533,0.271 0.49,0.549 -0.037,0.245 -0.174,0.475 -0.273,0.727 0.012,0.003 0.145,0.04 0.263,0.072 v 0.972 c -0.167,0.061 -0.311,0.113 -0.585,0.214 0.295,0.057 0.438,0.084 0.662,0.127 -0.233,0.414 0.325,1.031 -0.32,1.164 0.091,0.206 0.246,0.403 0.246,0.601 10e-4,0.255 -0.121,0.511 -0.205,0.82 0.279,0.158 0.279,0.159 0.185,1.089 -0.117,0.031 -0.237,0.061 -0.392,0.101 0.625,0.313 0.625,0.313 1.966,-0.05 -0.25,-0.071 -0.42,-0.12 -0.591,-0.168 V 13.08 c 0.192,-0.029 0.367,-0.055 0.542,-0.081 -0.001,-0.031 -0.002,-0.063 -0.004,-0.094 -0.177,-0.034 -0.354,-0.069 -0.544,-0.106 v -1.238 c 0.182,-0.063 0.348,-0.12 0.513,-0.178 C -0.179,11.356 -0.185,11.329 -0.19,11.302 -0.353,11.281 -0.516,11.26 -0.686,11.239 V 10.027 C -0.491,9.974 -0.312,9.924 -0.133,9.874 -0.14,9.842 -0.146,9.811 -0.154,9.778 -0.322,9.766 -0.49,9.753 -0.681,9.738 V 8.487 C -0.489,8.437 -0.309,8.391 -0.129,8.345 -0.136,8.307 -0.143,8.27 -0.149,8.233 -0.328,8.224 -0.507,8.214 -0.688,8.206 V 6.957 C -0.521,6.925 -0.364,6.894 -0.206,6.864 -0.208,6.832 -0.209,6.799 -0.209,6.766 -0.363,6.747 -0.517,6.726 -0.681,6.705 V 5.404 C -0.518,5.366 -0.381,5.333 -0.094,5.265 -0.4,5.188 -0.553,5.148 -0.689,5.113 V 3.659 C -0.52,3.603 -0.364,3.552 -0.041,3.444 -0.369,3.39 -0.524,3.364 -0.66,3.342 V 2.106 c 0.982,-0.074 1.251,0.078 1.253,0.78 0.012,4.398 0.009,8.795 -0.005,13.193 0,0.149 -0.151,0.413 -0.26,0.428 -0.9,0.127 -1.805,0.232 -2.712,0.291 -0.438,0.03 -0.555,-0.255 -0.553,-0.69 0.017,-3.946 0.01,-7.892 0.011,-11.838 0,-0.172 0.018,-0.344 0.026,-0.495 0.442,-0.066 0.844,-0.127 1.256,-0.19 v 1.629 c -0.151,0.033 -0.286,0.063 -0.559,0.122 0.282,0.097 0.429,0.149 0.586,0.204 -0.079,0.448 0.251,0.994 -0.636,1.171 0.327,0.058 0.452,0.08 0.647,0.115 M 3.356,-2.901 C 1.866,-3.878 0.069,-3.822 -0.784,-1.715 -0.849,-1.756 -0.92,-1.783 -0.966,-1.832 -2.082,-3.045 -3.248,-4.218 -4.291,-5.49 -5,-6.356 -5.797,-6.744 -6.88,-6.533 c -0.94,0.184 -1.88,0.364 -2.805,0.608 -0.185,0.049 -0.402,0.363 -0.423,0.572 -0.065,0.642 -0.07,1.295 -0.034,1.939 0.011,0.198 0.192,0.417 0.349,0.571 2.04,2.015 4.097,4.012 6.125,6.037 0.204,0.203 0.353,0.564 0.354,0.852 0.023,4.104 0.028,8.208 10e-4,12.311 -0.004,0.551 0.187,0.753 0.686,0.845 1.079,0.199 2.114,0.006 3.117,-0.346 C 0.707,16.78 0.956,16.403 0.957,16.163 0.984,11.077 0.99,5.992 0.951,0.906 0.948,0.514 0.623,0.091 0.368,-0.259 c -0.476,-0.65 -0.544,-1.285 -0.114,-1.863 0.414,-0.555 1.381,-0.79 2.028,-0.502 0.438,0.195 0.768,0.436 0.987,0.922 0.283,0.627 0.957,0.732 1.573,0.678 0.493,-0.045 0.98,-0.223 1.452,-0.392 0.083,-0.031 0.153,-0.337 0.102,-0.466 -0.604,-1.522 -2.043,-1.717 -3.04,-1.019" />
      </g>
      <g
         transform="matrix(0.7421732,0,0,-0.7421732,90.576727,19.571713)"
         id="g878"
         style="fill:#333333">
        <path
           id="path880"
           style="fill:#333333;fill-opacity:1;fill-rule:nonzero;stroke:none"
           d="m 0,0 h -0.009 c 0,-2.591 -0.002,-5.18 0,-7.771 0.002,-0.813 0.326,-1.235 1.122,-1.276 1.35,-0.069 2.705,-0.072 4.057,-0.09 0.918,-0.013 1.318,0.396 1.318,1.323 C 6.49,-2.849 6.493,2.115 6.487,7.08 6.487,7.41 6.447,7.746 6.374,8.068 6.225,8.73 5.841,9.021 5.163,9.021 3.887,9.022 2.612,9.021 1.336,9.011 0.482,9.006 0.002,8.514 0.001,7.654 -0.001,5.102 0,2.551 0,0 m 6.88,-0.057 c 0,-2.612 0.005,-5.222 -0.003,-7.834 -0.004,-1.122 -0.536,-1.624 -1.673,-1.616 -1.334,0.011 -2.669,0.008 -4.003,0.043 -1.109,0.03 -1.567,0.513 -1.569,1.605 -0.006,5.223 -0.009,10.444 -0.009,15.666 0,1.084 0.489,1.566 1.587,1.572 C 2.545,9.386 3.88,9.387 5.215,9.384 6.332,9.382 6.838,8.909 6.846,7.775 6.864,5.164 6.852,2.554 6.852,-0.057 Z" />
      </g>
      <g
         transform="matrix(0.7421732,0,0,-0.7421732,96.698995,9.2179491)"
         id="g882"
         style="fill:#333333">
        <path
           id="path884"
           style="fill:#333333;fill-opacity:1;fill-rule:nonzero;stroke:none"
           d="M 0,0 C 0.043,-0.046 0.086,-0.091 0.129,-0.137 0.508,0.007 0.886,0.153 1.264,0.298 1.261,0.367 1.258,0.436 1.255,0.505 0.995,0.492 0.713,0.533 0.48,0.447 0.29,0.378 0.158,0.155 0,0 m 7.227,-14.12 c -0.087,0.113 -0.2,0.316 -0.241,0.304 -0.326,-0.107 -0.645,-0.242 -0.947,-0.406 -0.042,-0.024 0.025,-0.25 0.044,-0.396 0.406,0.177 0.737,0.321 1.144,0.498 m -0.224,0.788 c -0.057,0.158 -0.119,0.355 -0.199,0.545 C 5.126,-8.808 3.438,-4.833 1.775,-0.849 1.568,-0.355 1.307,-0.246 0.833,-0.43 0.301,-0.638 0.345,-0.945 0.541,-1.399 c 1.202,-2.795 2.378,-5.602 3.562,-8.407 0.568,-1.345 1.132,-2.692 1.695,-4.028 0.422,0.176 0.796,0.332 1.205,0.502 M 7.206,-15.4 c -0.226,0.029 -0.53,0.02 -0.796,0.115 -0.227,0.08 -0.513,0.236 -0.599,0.434 -1.252,2.889 -2.472,5.792 -3.703,8.69 -0.734,1.729 -1.483,3.452 -2.206,5.186 -0.139,0.336 -0.366,0.821 -0.231,1.047 0.218,0.368 0.67,0.648 1.082,0.837 0.333,0.153 0.673,0.001 0.847,-0.407 1.388,-3.274 2.788,-6.543 4.181,-9.815 0.491,-1.151 0.986,-2.301 1.452,-3.462 0.195,-0.483 0.344,-0.988 0.463,-1.496 0.036,-0.154 -0.084,-0.355 -0.159,-0.523 C 7.45,-14.988 7.334,-15.17 7.206,-15.4" />
      </g>
      <g
         transform="matrix(0.7421732,0,0,-0.7421732,92.608637,13.781872)"
         id="g886"
         style="fill:#333333">
        <path
           id="path888"
           style="fill:#333333;fill-opacity:1;fill-rule:nonzero;stroke:none"
           d="m 0,0 v -0.655 c -0.001,-4.098 0.006,-8.195 -0.015,-12.292 -0.002,-0.291 -0.152,-0.619 -0.328,-0.862 -0.359,-0.496 -0.374,-1.213 0.036,-1.619 0.422,-0.415 1.168,-0.425 1.606,-0.019 0.438,0.404 0.431,1.154 0.048,1.658 -0.17,0.223 -0.31,0.537 -0.312,0.811 -0.019,4.117 -0.013,8.235 -0.013,12.351 V 0 Z m 1.257,-9.066 v -1.803 c 0.29,-0.029 0.546,-0.057 0.802,-0.083 0.002,-0.044 0.004,-0.088 0.005,-0.133 -0.252,-0.027 -0.505,-0.054 -0.802,-0.087 v -1.848 c 0.248,-0.019 0.506,-0.038 0.764,-0.058 0.006,-0.042 0.011,-0.084 0.017,-0.125 -0.26,-0.032 -0.52,-0.064 -0.797,-0.097 0.767,-1.134 0.796,-1.864 0.117,-2.386 -0.556,-0.426 -1.419,-0.353 -1.874,0.158 -0.543,0.611 -0.434,1.364 0.366,2.229 -0.314,0.043 -0.588,0.082 -0.911,0.126 0.246,0.326 0.892,-0.118 0.887,0.524 -0.004,0.389 -0.001,0.778 -0.001,1.201 -0.294,0.041 -0.545,0.075 -0.797,0.11 -0.002,0.045 -0.003,0.091 -0.003,0.137 0.247,0.023 0.494,0.048 0.77,0.076 V -9.6 c -0.283,0.03 -0.561,0.058 -0.84,0.088 -0.003,0.038 -0.006,0.075 -0.009,0.113 0.269,0.04 0.538,0.079 0.843,0.125 v 1.379 c -0.27,0.047 -0.528,0.091 -0.785,0.136 0.001,0.033 0.002,0.066 0.003,0.101 0.253,0.024 0.506,0.046 0.787,0.072 v 1.552 c -0.299,0.027 -0.572,0.051 -0.847,0.076 -0.002,0.047 -0.005,0.094 -0.008,0.142 0.272,0.03 0.544,0.061 0.85,0.095 v 1.583 c -0.296,0.018 -0.557,0.034 -0.819,0.051 -0.005,0.042 -0.01,0.084 -0.015,0.126 0.27,0.047 0.539,0.093 0.838,0.146 v 1.46 c -0.272,0.03 -0.515,0.057 -0.758,0.084 -0.005,0.043 -0.01,0.086 -0.015,0.129 0.241,0.036 0.483,0.072 0.763,0.114 v 1.453 c -0.261,0.035 -0.498,0.067 -0.81,0.108 0.293,0.348 1.065,-0.13 0.86,0.644 C 1.02,0.347 1.136,0.306 1.293,-0.314 1.547,-0.333 1.809,-0.353 2.07,-0.372 2.076,-0.421 2.081,-0.47 2.086,-0.518 1.825,-0.554 1.565,-0.589 1.261,-0.631 V -2.397 C 1.565,-2.42 1.869,-2.443 2.172,-2.467 2.178,-2.511 2.184,-2.556 2.19,-2.601 1.896,-2.642 1.602,-2.683 1.263,-2.731 v -1.82 c 0.268,-0.037 0.541,-0.074 0.814,-0.112 0,-0.04 0,-0.079 0,-0.119 H 1.27 V -6.661 C 1.557,-6.684 1.846,-6.709 2.135,-6.733 2.132,-6.788 2.129,-6.844 2.127,-6.899 1.853,-6.912 1.579,-6.924 1.262,-6.938 V -8.78 C 1.562,-8.806 1.857,-8.832 2.153,-8.858 2.154,-8.909 2.156,-8.963 2.158,-9.014 1.874,-9.032 1.589,-9.048 1.257,-9.066" />
      </g>
      <g
         transform="matrix(0.7421732,0,0,-0.7421732,92.828262,16.590736)"
         id="g890"
         style="fill:#333333">
        <path
           id="path892"
           style="fill:#333333;fill-opacity:1;fill-rule:nonzero;stroke:none"
           d="m 0,0 c 0.554,0.141 0.474,-0.203 0.475,-0.465 0.003,-1.645 0.002,-3.291 0.002,-4.938 0,-1.331 -0.017,-2.664 0.014,-3.996 0.006,-0.249 0.15,-0.535 0.316,-0.733 0.385,-0.456 0.416,-0.987 0.015,-1.36 -0.392,-0.363 -0.982,-0.337 -1.304,0.057 -0.356,0.433 -0.253,1.01 0.177,1.404 0.165,0.152 0.292,0.439 0.293,0.665 0.019,2.9 0.012,5.801 0.012,8.7 z" />
      </g>
    </g>
    <g
       id="g7491"
       transform="translate(12.942076,2.1166667)"
       style="fill:#333333">
      <g
         transform="matrix(0.7421732,0,0,-0.7421732,149.70924,24.902404)"
         id="g910"
         style="fill:#333333">
        <path
           id="path912"
           style="fill:#333333;fill-opacity:1;fill-rule:nonzero;stroke:none"
           d="M 0,0 C 0.434,0.534 0.886,1.092 1.266,1.559 0.574,1.543 0.007,0.904 0,0 M 4.729,3.654 C 3.911,3.514 3.357,2.83 3.489,2.103 3.888,2.602 4.335,3.161 4.729,3.654 M 2.715,6.905 C 2.646,7.017 2.577,7.131 2.508,7.245 2.114,6.99 1.719,6.734 1.324,6.48 1.386,6.38 1.448,6.278 1.51,6.178 1.912,6.421 2.314,6.663 2.715,6.905 M -13.295,4.02 c 0.047,-0.064 0.095,-0.127 0.142,-0.191 0.724,0.275 1.178,0.914 1.683,1.487 -0.609,-0.432 -1.217,-0.865 -1.825,-1.296 M -2.067,1.9 c -0.06,0.094 -0.12,0.187 -0.18,0.279 C -2.919,1.671 -3.591,1.163 -4.264,0.654 -4.235,0.613 -4.207,0.572 -4.178,0.531 -3.474,0.988 -2.77,1.444 -2.067,1.9 m -10.39,3.342 c 0.028,-0.042 0.056,-0.084 0.083,-0.125 0.769,0.494 1.537,0.988 2.306,1.483 -0.057,0.084 -0.113,0.169 -0.171,0.253 -0.739,-0.536 -1.479,-1.074 -2.218,-1.611 M -5.546,3.994 C -5.595,4.073 -5.645,4.152 -5.694,4.231 -6.64,3.682 -7.479,2.976 -8.264,2.192 c 0.906,0.6 1.812,1.202 2.718,1.802 m -7.906,1.263 c 1.562,0.79 2.527,1.587 2.534,2.078 -0.895,-0.734 -1.714,-1.406 -2.534,-2.078 M -1.879,-0.14 c -0.777,-0.494 -1.441,-0.918 -2.15,-1.37 0.572,-0.274 1.925,0.575 2.15,1.37 M -7.78,5.325 c -0.055,0.074 -0.111,0.149 -0.166,0.223 -0.955,-0.535 -1.75,-1.285 -2.496,-2.101 0.887,0.626 1.775,1.251 2.662,1.878 M -8.945,1.284 C -8.893,1.2 -8.842,1.116 -8.791,1.032 -7.761,1.597 -6.938,2.454 -5.965,3.1 -6.001,3.15 -6.036,3.201 -6.072,3.252 Z M -7.063,0.461 C -5.794,1.324 -4.671,2.089 -3.51,2.88 -4.026,3.082 -6.076,1.676 -7.063,0.461 M -8.15,0.725 C -7.609,0.597 -5.6,2.05 -4.727,3.119 -5.826,2.351 -6.925,1.583 -8.15,0.725 m 7.661,4.717 H -1.717 C -1.8,5.08 -1.873,4.759 -1.93,4.504 h 1.441 z M 1.82,1.035 C 0.902,0.639 0.65,0.206 0.851,-0.572 1.653,-0.49 2.114,0.24 1.82,1.035 M 4.267,1.512 C 5.122,1.575 5.595,2.332 5.283,3.081 4.449,2.804 4.186,2.415 4.267,1.512 M 1.003,-1.165 C 0.978,-1.111 0.954,-1.056 0.93,-1.001 0.741,-1.061 0.547,-1.109 0.365,-1.185 -0.36,-1.485 -0.787,-1.255 -0.913,-0.487 -1.107,0.697 -0.452,1.978 0.66,2.366 1.017,2.491 1.71,2.456 1.855,2.235 2.249,1.634 2.69,0.946 2.317,0.133 2.241,-0.032 2.19,-0.21 2.09,-0.488 2.949,0.031 3.686,0.476 4.423,0.92 4.399,0.971 4.374,1.023 4.35,1.074 4.147,0.997 3.948,0.901 3.738,0.851 3.544,0.805 3.268,0.72 3.154,0.812 2.911,1.006 2.644,1.275 2.575,1.56 2.318,2.614 2.759,3.453 3.56,4.115 c 0.619,0.513 1.292,0.638 2.037,0.094 0,0.209 10e-4,0.345 0,0.482 C 5.593,5.856 5.319,6.026 4.293,5.474 2.833,4.688 1.355,3.931 -0.059,3.071 -0.511,2.797 -1.03,2.268 -1.096,1.796 -1.259,0.628 -1.2,-0.577 -1.182,-1.766 c 0.006,-0.408 0.333,-0.475 0.654,-0.298 0.52,0.282 1.021,0.598 1.531,0.899 M 1.115,9.463 c -2.377,1.378 -4.646,2.7 -6.923,4.009 -0.841,0.484 -1.642,0.503 -2.516,-0.056 -1.299,-0.832 -2.68,-1.537 -4.011,-2.324 -0.37,-0.219 -0.684,-0.533 -1.026,-0.801 -0.321,-0.252 -0.316,-0.48 0.035,-0.7 0.604,-0.381 1.195,-0.782 1.808,-1.147 1.566,-0.93 3.156,-1.82 4.704,-2.778 0.522,-0.324 0.892,-0.392 1.39,0.038 0.412,0.356 0.935,0.588 1.416,0.861 1.661,0.944 3.326,1.883 5.123,2.898 m 5.042,-5.34 c 0,-0.669 -0.001,-1.338 0,-2.008 0,-0.655 -0.278,-1.154 -0.845,-1.48 -2.039,-1.171 -4.075,-2.347 -6.122,-3.504 -0.933,-0.527 -1.831,-0.141 -2.623,0.307 -3.147,1.78 -6.219,3.696 -9.403,5.406 -1.581,0.849 -2.17,1.963 -1.956,3.679 0.096,0.772 0.015,1.568 -10e-4,2.351 -0.019,0.938 0.375,1.637 1.179,2.112 1.745,1.03 3.491,2.061 5.236,3.093 0.939,0.556 1.891,0.557 2.814,-0.001 2.209,-1.333 4.395,-2.706 6.608,-4.033 C 2.368,9.251 3.715,8.496 5.072,7.76 5.823,7.352 6.197,6.781 6.162,5.923 6.138,5.323 6.158,4.723 6.157,4.123" />
      </g>
      <g
         transform="matrix(0.7421732,0,0,-0.7421732,157.37001,11.898749)"
         id="g914"
         style="fill:#333333">
        <path
           id="path916"
           style="fill:#333333;fill-opacity:1;fill-rule:nonzero;stroke:none"
           d="M 0,0 C -0.163,-0.208 -0.326,-0.416 -0.489,-0.625 -0.662,-0.253 -0.836,0.12 -1.01,0.493 -0.885,0.529 -0.759,0.564 -0.634,0.6 -0.83,0.39 -1.025,0.182 -1.232,-0.041 c -0.005,0.006 0.153,-0.132 0.233,-0.306 0.076,-0.165 0.071,-0.367 0.114,-0.628 C -0.538,-0.593 -0.269,-0.297 0,0 M 0.402,3.827 C -0.109,3.688 -0.628,3.627 -1.062,3.403 -1.364,3.247 -1.699,2.888 -1.741,2.581 -1.776,2.333 -1.459,1.922 -1.192,1.763 -0.086,1.106 1.091,1.347 2.214,1.709 2.506,1.802 2.83,2.271 2.848,2.585 2.863,2.84 2.494,3.245 2.205,3.365 1.643,3.599 1.017,3.679 0.402,3.827 m -2.217,-7.915 c 0,-4.192 -0.006,-8.322 0.017,-12.452 0.002,-0.219 0.203,-0.507 0.396,-0.645 1.054,-0.752 2.222,-0.683 3.377,-0.317 0.824,0.26 1.063,0.681 1.063,1.54 0,3.715 0.001,7.431 -10e-4,11.146 0,0.24 -0.02,0.479 -0.032,0.74 -1.619,-0.768 -3.177,-0.626 -4.82,-0.012 M -2.37,-7.057 c 0,3.048 0.003,6.096 -0.002,9.144 -0.002,1.181 0.262,1.581 1.415,1.86 C 0.082,4.199 1.129,4.282 2.177,3.902 3.11,3.563 3.588,2.942 3.588,1.937 3.589,-4.112 3.579,-10.162 3.601,-16.211 c 0.003,-0.748 -0.313,-1.2 -0.91,-1.567 -1.372,-0.846 -2.761,-0.736 -4.161,-0.109 -0.623,0.279 -0.914,0.751 -0.908,1.479 0.028,3.117 0.012,6.234 0.012,9.351 z" />
      </g>
      <g
         transform="matrix(0.7421732,0,0,-0.7421732,147.39084,8.9994856)"
         id="g918"
         style="fill:#333333">
        <path
           id="path920"
           style="fill:#333333;fill-opacity:1;fill-rule:nonzero;stroke:none"
           d="m 0,0 c -0.965,-0.301 -1.45,-0.857 -1.52,-1.812 -0.096,-1.311 0.719,-2.49 2.576,-2.392 1.046,0.056 1.899,0.6 2.274,1.58 0.27,0.705 0.017,1.591 -0.624,2.191 -0.744,0.695 -1.85,0.86 -2.731,0.409 z M 0.918,0.673 C 2.441,0.671 3.719,-0.314 3.863,-1.597 4.032,-3.099 3.108,-4.378 1.63,-4.69 c -1.598,-0.336 -3.205,0.504 -3.631,1.902 -0.549,1.793 0.86,3.464 2.919,3.461" />
      </g>
      <g
         transform="matrix(0.7421732,0,0,-0.7421732,157.73998,10.568347)"
         id="g922"
         style="fill:#333333">
        <path
           id="path924"
           style="fill:#333333;fill-opacity:1;fill-rule:nonzero;stroke:none"
           d="M 0,0 C -0.61,-0.027 -0.961,0.154 -0.962,0.772 -0.964,1.491 -0.424,1.494 0.048,1.528 0.683,1.576 1.04,1.266 1.028,0.739 1.01,-0.01 0.434,0.046 0,0" />
      </g>
      <g
         transform="matrix(0.7421732,0,0,-0.7421732,148.46549,9.7834996)"
         id="g926"
         style="fill:#333333">
        <path
           id="path928"
           style="fill:#333333;fill-opacity:1;fill-rule:nonzero;stroke:none"
           d="m 0,0 c -0.145,0.153 -0.346,0.366 -0.547,0.577 0.053,-0.053 0.107,-0.108 0.16,-0.162 -0.201,-0.22 -0.403,-0.44 -0.604,-0.66 -0.031,0.068 -0.06,0.135 -0.091,0.203 0.178,-0.271 0.355,-0.542 0.517,-0.789 C -0.383,-0.563 -0.195,-0.286 0,0 M -1.473,1.032 C -0.801,0.94 -0.089,0.958 0.532,0.729 1.284,0.452 1.717,-0.196 1.713,-1.046 1.709,-1.884 1.25,-2.397 0.51,-2.727 c -1.669,-0.743 -3.345,0.191 -3.204,1.871 0.042,0.505 0.488,0.986 0.78,1.459 0.11,0.179 0.308,0.304 0.466,0.453 z" />
      </g>
    </g>
    <g
       id="g7523"
       transform="translate(7.1850132,4.1166669)"
       style="fill:#333333">
      <g
         transform="matrix(0.7421732,0,0,-0.7421732,91.510525,65.978701)"
         id="g964"
         style="fill:#333333">
        <path
           id="path966"
           style="fill:#333333;fill-opacity:1;fill-rule:nonzero;stroke:none"
           d="M 0,0 V 1.678 C -0.609,0.983 -0.616,0.745 0,0 m 11.65,9.279 c 0.057,0.016 0.114,0.032 0.172,0.049 0.03,0.233 0.095,0.468 0.083,0.699 -0.05,0.946 -0.695,1.43 -1.476,1.741 C 8.151,12.673 5.821,12.813 3.442,12.19 2.463,11.933 1.592,11.529 0.993,10.679 0.614,10.14 0.332,9.571 0.657,8.864 c 0.246,1.981 1.597,2.734 3.319,3.115 1.738,0.383 3.475,0.356 5.184,-0.082 1.318,-0.336 2.59,-0.814 2.49,-2.618 M 5.533,6.639 c 1.572,0.184 3.073,0.38 4.484,1.06 0.971,0.469 1.542,2.103 0.356,2.988 -0.338,0.253 -0.768,0.481 -1.177,0.524 -1.362,0.141 -2.734,0.276 -4.1,0.254 C 3.983,11.446 2.905,11.162 2.057,10.299 0.99,9.215 1.2,7.813 2.627,7.311 3.559,6.984 4.562,6.857 5.533,6.639 m -4.751,-8.25 c 0.139,-0.319 0.2,-0.584 0.35,-0.782 0.95,-1.25 2.302,-1.639 3.791,-1.757 2.225,-0.177 4.302,0.216 6.157,1.521 0.401,0.283 0.689,0.59 0.691,1.165 0.008,2.861 0.064,5.723 0.103,8.584 0.002,0.184 0,0.368 0,0.436 C 10.696,7.086 9.57,6.582 8.403,6.206 7.975,6.067 7.826,5.862 7.801,5.503 7.754,4.806 7.718,4.107 7.728,3.409 7.733,3.048 7.945,2.539 7.395,2.551 6.909,2.562 7.131,3.074 7.118,3.401 7.085,4.246 7.376,5.153 6.595,6.007 6.529,5.647 6.452,5.389 6.441,5.127 6.425,4.714 6.477,4.297 6.448,3.885 6.438,3.747 6.27,3.621 6.175,3.489 6.057,3.617 5.858,3.732 5.836,3.876 5.761,4.347 5.735,4.829 5.719,5.309 5.705,5.721 5.55,5.95 5.109,5.994 3.594,6.144 2.079,6.303 0.788,7.232 0.788,4.949 0.747,2.728 0.802,0.509 0.841,-1.028 0.9,-1.07 2.446,-1.102 3.122,-1.116 3.951,-1.121 4.453,-0.765 6.103,0.403 7.632,1.742 9.219,3.001 9.381,3.129 9.623,3.158 9.827,3.232 9.739,3.018 9.707,2.744 9.553,2.601 8.472,1.586 7.353,0.613 6.27,-0.399 5.237,-1.366 4.003,-1.756 2.622,-1.741 c -0.561,0.006 -1.121,0.077 -1.84,0.13 m 11.736,9.777 c 0,-3.188 -0.032,-6.378 0.017,-9.567 0.017,-1.1 -0.521,-1.757 -1.364,-2.27 -1.696,-1.031 -3.584,-1.312 -5.524,-1.384 -1.065,-0.041 -2.073,0.16 -3.066,0.551 -0.846,0.332 -1.529,0.867 -2.05,1.567 -0.236,0.319 -0.209,0.822 -0.349,1.223 -0.144,0.413 -0.264,0.876 -0.537,1.195 -0.79,0.92 -0.908,1.596 -0.19,2.562 0.443,0.598 0.612,1.206 0.562,1.94 -0.117,1.7 -0.186,3.402 -0.27,5.105 -0.059,1.191 0.365,2.18 1.421,2.753 3.033,1.646 6.202,1.644 9.379,0.516 1.658,-0.589 2.192,-1.583 2.118,-3.338 -0.012,-0.283 -0.002,-0.567 -0.002,-0.852 -0.048,0 -0.097,0 -0.145,-10e-4" />
      </g>
      <g
         transform="matrix(0.7421732,0,0,-0.7421732,111.85565,61.613276)"
         id="g968"
         style="fill:#333333">
        <path
           id="path970"
           style="fill:#333333;fill-opacity:1;fill-rule:nonzero;stroke:none"
           d="M 0,0 C -0.293,-0.394 -0.489,-0.658 -0.654,-0.881 H 0.728 C 0.76,-0.815 0.791,-0.75 0.822,-0.684 0.532,-0.444 0.242,-0.201 0,0 m 0.444,-13.132 c 1.19,2.03 2.309,3.94 3.452,5.892 C 2.648,-5.884 1.83,-4.192 1.345,-2.188 1.108,-2.756 0.928,-3.191 0.72,-3.69 0.948,-3.642 1.071,-3.615 1.202,-3.586 1.269,-3.868 1.333,-4.139 1.407,-4.451 1.05,-4.616 0.708,-4.774 0.366,-4.932 0.308,-4.885 0.25,-4.837 0.191,-4.79 c -0.702,-2.148 -1.398,-4.298 -2.112,-6.441 -0.139,-0.417 -0.023,-0.722 0.275,-0.994 0.652,-0.596 1.416,-0.9 2.09,-0.907 M -9.645,-8.29 c -0.029,-0.331 -0.058,-0.661 -0.086,-0.992 0.76,-0.776 1.697,-1.244 2.614,-1.565 0.121,0.399 0.233,0.765 0.353,1.16 0.375,-0.155 0.647,-0.266 0.964,-0.397 -0.204,-0.401 -0.371,-0.73 -0.584,-1.147 0.996,-0.191 2.005,-0.383 2.932,-0.56 -0.026,0.308 -0.108,0.51 -0.04,0.623 0.145,0.239 0.342,0.472 0.574,0.62 0.067,0.043 0.323,-0.209 0.518,-0.344 0.781,2.155 1.586,4.337 2.358,6.531 0.187,0.529 0.265,1.097 0.394,1.647 l -0.016,-0.02 c 0.11,0.316 0.219,0.634 0.336,0.97 -2.6,0.343 -5.04,0.931 -7.19,2.592 0.517,-0.545 0.557,-1.047 0.069,-1.579 -0.12,0.085 -0.25,0.179 -0.408,0.291 -0.394,-1.072 -0.786,-2.108 -1.157,-3.154 -0.552,-1.555 -1.088,-3.117 -1.631,-4.676 m 4.161,9.445 c 0.443,-0.305 0.887,-0.61 1.33,-0.915 0.017,0.026 0.033,0.053 0.049,0.08 -0.091,0.151 -0.182,0.303 -0.273,0.453 0.939,-0.373 1.868,-0.777 2.824,-1.1 0.327,-0.11 0.724,-0.018 1.124,-0.018 -0.044,0.192 -0.037,0.282 -0.076,0.312 -1.055,0.787 -2.236,1.24 -3.556,1.268 C -4.156,1.238 -4.258,0.92 -4.357,0.754 -4.448,0.978 -4.539,1.203 -4.652,1.484 -5.374,1.7 -5.457,1.67 -5.469,1.135 -6.068,1.67 -5.294,1.586 -5.126,1.857 -5.415,1.843 -5.664,1.856 -5.901,1.81 -5.984,1.794 -6.118,1.586 -6.095,1.551 -5.962,1.34 -5.789,1.154 -5.629,0.96 c 0.048,0.065 0.097,0.13 0.145,0.195 m 6.686,-14.82 c -1.35,0.048 -2.543,0.404 -3.564,1.293 -0.18,0.156 -0.493,0.262 -0.728,0.238 -2.825,-0.307 -5.112,0.816 -7.088,2.692 -0.217,0.205 -0.248,0.795 -0.134,1.128 0.814,2.368 1.689,4.715 2.541,7.07 0.297,0.819 0.58,1.642 0.878,2.46 0.298,0.816 0.564,1.024 1.456,1.02 1.851,-0.007 3.558,-0.564 5.171,-1.439 0.306,-0.166 0.616,-0.329 0.91,-0.514 0.545,-0.346 0.927,-0.759 1.067,-1.465 0.346,-1.75 0.793,-3.482 1.9,-4.947 0.183,-0.243 0.358,-0.504 0.586,-0.699 0.482,-0.415 0.386,-0.78 0.031,-1.228 -1.33,-1.679 -2.463,-3.473 -3.026,-5.609" />
      </g>
      <g
         transform="matrix(0.7421732,0,0,-0.7421732,100.57328,48.649087)"
         id="g972"
         style="fill:#333333">
        <path
           id="path974"
           style="fill:#333333;fill-opacity:1;fill-rule:nonzero;stroke:none"
           d="M 0,0 C -0.758,-0.059 -1.884,-1.192 -1.816,-1.706 -1.236,-1.161 -0.688,-0.646 0,0 m -1.365,-3.425 c 1.246,0.948 2.533,1.798 3.247,3.264 C 1.509,-0.216 1.125,-0.282 0.873,-0.5 0.271,-1.024 -0.226,-1.675 -0.849,-2.169 -1.278,-2.509 -1.468,-2.845 -1.365,-3.425 M 2.642,-0.4 c -1.094,-1.511 -2.32,-2.812 -3.98,-3.658 0.125,-0.151 0.201,-0.256 0.291,-0.348 2.862,-2.874 5.731,-5.744 8.583,-8.629 0.321,-0.325 0.631,-0.288 0.938,-0.101 1.298,0.788 2.516,1.675 3.149,3.122 0.09,0.203 0.006,0.602 -0.149,0.774 -0.688,0.759 -1.428,1.472 -2.154,2.195 C 7.113,-4.847 4.903,-2.65 2.642,-0.4 m -5.07,-0.284 h -0.545 c 0.29,0.788 0.876,1.191 1.495,1.543 C -1.377,0.915 -1.17,0.806 -1.02,0.753 -0.685,0.636 -0.345,0.526 -0.024,0.377 0.53,0.117 1.078,0.243 1.627,0.366 2.285,0.514 2.833,0.301 3.29,-0.155 c 2.888,-2.888 5.773,-5.779 8.652,-8.675 0.5,-0.503 0.544,-0.997 0.202,-1.603 -0.8,-1.419 -2.018,-2.398 -3.408,-3.172 -0.781,-0.435 -1.136,-0.321 -1.809,0.355 -2.728,2.738 -5.451,5.483 -8.198,8.202 -0.604,0.598 -0.832,1.245 -0.634,2.063 0.039,0.161 0.046,0.347 0.004,0.505 -0.147,0.558 -0.322,1.107 -0.527,1.796" />
      </g>
      <g
         transform="matrix(0.7421732,0,0,-0.7421732,104.69737,67.765819)"
         id="g976"
         style="fill:#333333">
        <path
           id="path978"
           style="fill:#333333;fill-opacity:1;fill-rule:nonzero;stroke:none"
           d="M 0,0 C 0.141,0.03 0.309,0.119 0.415,0.072 0.5,0.033 0.58,-0.2 0.541,-0.298 0.42,-0.594 0.473,-1.083 -0.086,-0.992 -0.058,-0.661 -0.029,-0.331 0,0" />
      </g>
      <g
         transform="matrix(0.7421732,0,0,-0.7421732,109.79218,62.856675)"
         id="g980"
         style="fill:#333333">
        <path
           id="path982"
           style="fill:#333333;fill-opacity:1;fill-rule:nonzero;stroke:none"
           d="m 0,0 c -0.308,-0.355 -0.481,-0.656 -0.742,-0.797 -0.087,-0.048 -0.571,0.319 -0.563,0.479 0.013,0.259 0.236,0.612 0.466,0.717 C -0.683,0.471 -0.364,0.187 0,0" />
      </g>
      <g
         transform="matrix(0.7421732,0,0,-0.7421732,108.0397,62.807134)"
         id="g984"
         style="fill:#333333">
        <path
           id="path986"
           style="fill:#333333;fill-opacity:1;fill-rule:nonzero;stroke:none"
           d="M 0,0 C -0.804,0.292 -0.841,0.437 -0.319,1.254 0.48,1.061 0.553,0.773 0,0" />
      </g>
      <g
         transform="matrix(0.7421732,0,0,-0.7421732,105.76143,69.198917)"
         id="g988"
         style="fill:#333333">
        <path
           id="path990"
           style="fill:#333333;fill-opacity:1;fill-rule:nonzero;stroke:none"
           d="M 0,0 C -0.181,0.22 -0.455,0.419 -0.512,0.667 -0.553,0.848 -0.345,1.14 -0.168,1.286 -0.098,1.343 0.332,1.159 0.347,1.05 0.392,0.735 0.308,0.403 0.275,0.078 0.183,0.052 0.092,0.026 0,0" />
      </g>
      <g
         transform="matrix(0.7421732,0,0,-0.7421732,110.78818,63.881765)"
         id="g992"
         style="fill:#333333">
        <path
           id="path994"
           style="fill:#333333;fill-opacity:1;fill-rule:nonzero;stroke:none"
           d="m 0,0 c -0.27,0.078 -0.393,0.11 -0.513,0.149 -0.1,0.034 -0.198,0.075 -0.439,0.166 0.201,0.331 0.35,0.644 0.572,0.891 C -0.326,1.266 0.124,1.114 0.125,1.057 0.129,0.719 0.054,0.38 0,0" />
      </g>
      <g
         transform="matrix(0.7421732,0,0,-0.7421732,108.75693,69.387781)"
         id="g996"
         style="fill:#333333">
        <path
           id="path998"
           style="fill:#333333;fill-opacity:1;fill-rule:nonzero;stroke:none"
           d="M 0,0 C -0.098,-1.003 -0.223,-1.093 -0.999,-0.723 -0.876,0.214 -0.752,0.303 0,0" />
      </g>
      <g
         transform="matrix(0.7421732,0,0,-0.7421732,112.11652,63.627776)"
         id="g1000"
         style="fill:#333333">
        <path
           id="path1002"
           style="fill:#333333;fill-opacity:1;fill-rule:nonzero;stroke:none"
           d="m 0,0 c -0.182,-0.546 -0.561,-0.535 -1.213,-0.311 0.338,0.354 0.557,0.768 0.875,0.871 0.356,0.113 0.377,-0.286 0.322,-0.581 z" />
      </g>
      <g
         transform="matrix(0.7421732,0,0,-0.7421732,113.17345,65.391903)"
         id="g1004"
         style="fill:#333333">
        <path
           id="path1006"
           style="fill:#333333;fill-opacity:1;fill-rule:nonzero;stroke:none"
           d="M 0,0 C 0.079,-0.161 0.124,-0.278 0.19,-0.382 0.258,-0.489 0.347,-0.583 0.444,-0.703 0.178,-0.966 -0.075,-1.216 -0.327,-1.465 -1.024,-0.856 -0.989,-0.673 0,0" />
      </g>
      <g
         transform="matrix(0.7421732,0,0,-0.7421732,111.06004,70.678774)"
         id="g1008"
         style="fill:#333333">
        <path
           id="path1010"
           style="fill:#333333;fill-opacity:1;fill-rule:nonzero;stroke:none"
           d="M 0,0 C -0.804,0.33 -0.842,0.494 -0.295,1.271 0.558,0.81 0.567,0.771 0,0" />
      </g>
      <g
         transform="matrix(0.7421732,0,0,-0.7421732,114.01619,66.485792)"
         id="g1012"
         style="fill:#333333">
        <path
           id="path1014"
           style="fill:#333333;fill-opacity:1;fill-rule:nonzero;stroke:none"
           d="M 0,0 C 0.179,-0.263 0.32,-0.471 0.481,-0.705 0.229,-0.908 -0.004,-1.093 -0.26,-1.298 -0.447,-1.139 -0.609,-1.002 -0.852,-0.793 -0.564,-0.525 -0.309,-0.288 0,0" />
      </g>
      <g
         transform="matrix(0.7421732,0,0,-0.7421732,111.79517,70.272601)"
         id="g1016"
         style="fill:#333333">
        <path
           id="path1018"
           style="fill:#333333;fill-opacity:1;fill-rule:nonzero;stroke:none"
           d="M 0,0 C 0.303,-0.148 0.507,-0.25 0.759,-0.373 0.661,-0.654 0.571,-0.908 0.457,-1.232 0.185,-1.132 -0.044,-1.046 -0.332,-0.94 -0.221,-0.626 -0.126,-0.357 0,0" />
      </g>
      <g
         transform="matrix(0.7421732,0,0,-0.7421732,104.74044,54.74886)"
         id="g1020"
         style="fill:#333333">
        <path
           id="path1022"
           style="fill:#333333;fill-opacity:1;fill-rule:nonzero;stroke:none"
           d="M 0,0 C 0.802,0.385 1.091,0.772 1.062,1.568 0.629,1.143 0.257,0.779 -0.171,0.359 -0.158,0.332 -0.079,0.166 0,0 m -2.438,1.326 c 0.359,-1.039 0.967,-1.465 1.84,-1.336 -0.05,0.224 -0.1,0.444 -0.149,0.663 C -0.859,0.59 -0.949,0.54 -0.995,0.515 -1.083,0.815 -1.103,1.248 -1.243,1.292 -1.59,1.398 -1.992,1.326 -2.438,1.326 M 0.393,2.494 C 0.428,2.469 0.463,2.444 0.498,2.418 0.426,2.274 0.355,2.128 0.245,1.906 0.606,1.93 0.872,1.949 1.141,1.967 1.001,2.994 0.304,3.583 -0.628,3.492 c 0.052,-0.316 0.104,-0.631 0.159,-0.971 0.144,0.072 0.246,0.122 0.361,0.18 V 2.083 C 0.119,2.27 0.256,2.382 0.393,2.494 M -2.32,2.484 c 0.252,-0.025 0.503,-0.05 0.746,-0.073 0.064,0.264 0.112,0.466 0.161,0.669 0.031,-0.007 0.063,-0.013 0.094,-0.02 0.038,-0.272 0.077,-0.543 0.115,-0.814 0.081,0.012 0.162,0.023 0.243,0.034 -0.051,0.4 -0.101,0.801 -0.152,1.201 -0.08,0.037 -0.159,0.074 -0.238,0.112 C -1.671,3.218 -1.991,2.843 -2.308,2.465 -2.374,2.249 -2.44,2.033 -2.544,1.691 -2.059,1.759 -1.708,1.808 -1.356,1.857 -1.357,1.941 -1.358,2.024 -1.359,2.108 -1.562,2.134 -1.775,2.13 -1.964,2.196 -2.1,2.243 -2.203,2.384 -2.32,2.484 m 1.653,-3.015 c -1.274,0.002 -2.239,0.997 -2.25,2.321 -0.01,1.213 1.074,2.247 2.368,2.2 C 0.834,3.942 1.547,2.974 1.63,1.671 1.704,0.491 0.575,-0.532 -0.667,-0.531" />
      </g>
    </g>
    <text
       xml:space="preserve"
       style="font-size:6.35px;line-height:1.25;font-family:sans-serif;letter-spacing:0px;word-spacing:0px;fill:#333333;stroke-width:0.378536"
       x="151.38116"
       y="82.444321"
       id="text7423"><tspan
         sodipodi:role="line"
         id="tspan7421"
         x="151.38116"
         y="82.444321"
         style="font-style:normal;font-variant:normal;font-weight:normal;font-stretch:normal;font-size:6.35px;font-family:sans;-inkscape-font-specification:sans;fill:#333333;stroke-width:0.378536">废药品</tspan></text>
    <text
       id="text7423-3"
       y="42.444317"
       x="151.38116"
       style="font-size:6.35px;line-height:1.25;font-family:sans-serif;letter-spacing:0px;word-spacing:0px;fill:#333333;stroke-width:0.378537"
       xml:space="preserve"><tspan
         style="font-style:normal;font-variant:normal;font-weight:normal;font-stretch:normal;font-size:6.35px;font-family:sans;-inkscape-font-specification:sans;fill:#333333;stroke-width:0.378537"
         y="42.444317"
         x="151.38116"
         id="tspan7421-6"
         sodipodi:role="line">废电池</tspan></text>
    <text
       id="text7423-7"
       y="82.463371"
       x="89.664459"
       style="font-size:6.35px;line-height:1.25;font-family:sans-serif;letter-spacing:0px;word-spacing:0px;fill:#333333;stroke-width:0.378537"
       xml:space="preserve"><tspan
         style="font-style:normal;font-variant:normal;font-weight:normal;font-stretch:normal;font-size:6.35px;font-family:sans;-inkscape-font-specification:sans;fill:#333333;stroke-width:0.378537"
         y="82.463371"
         x="89.664459"
         id="tspan7421-5"
         sodipodi:role="line">有机溶剂包装物</tspan></text>
    <text
       xml:space="preserve"
       style="font-style:normal;font-variant:normal;font-weight:normal;font-stretch:normal;font-size:6.35px;line-height:1.25;font-family:sans;-inkscape-font-specification:sans;letter-spacing:0px;word-spacing:0px;fill:#333333;stroke-width:0.378537"
       x="92.68351"
       y="42.482418"
       id="text7423-3-3"><tspan
         sodipodi:role="line"
         id="tspan7421-6-5"
         x="92.68351"
         y="42.482418"
         style="font-style:normal;font-variant:normal;font-weight:normal;font-stretch:normal;font-size:6.35px;font-family:sans;-inkscape-font-specification:sans;fill:#333333;stroke-width:0.378537">含汞废弃物</tspan></text>
  </g>
</svg>
